<svg width="690" height="741" viewBox="0 0 690 741" fill="none" xmlns="http://www.w3.org/2000/svg">
<path opacity="0.15" d="M420.071 508.217L420.071 700.831H420.022L420.002 701.31C418.293 741.567 385.364 773.67 345 773.67C304.636 773.67 271.707 741.567 269.998 701.31L269.978 700.831H269.929L269.929 509.528V508.783L269.239 509.065C193.906 539.889 140.786 614.359 140.786 701.331C140.786 788.183 193.76 862.568 268.929 893.469V1017.37C115.271 982.477 0.5 844.108 0.5 678.726C0.5 609.538 14.6614 560.884 35.2654 521.213C51.8749 489.233 72.6691 463.088 93.6583 436.698C98.7207 430.333 103.794 423.954 108.824 417.475C172.67 335.223 233.655 213.92 197.768 0.701895C266.287 20.6957 325.05 73.8369 365.105 141.793C405.307 209.999 426.635 293.082 420.073 372.43L419.972 373.656L420.9 372.848L508.071 296.962C628.236 387.65 689.5 513.182 689.5 678.726C689.5 844.108 574.729 982.477 421.071 1017.37V894.787C497.978 864.724 552.5 789.443 552.5 701.331C552.5 613.097 497.827 537.73 420.753 507.751L420.071 507.486V508.217Z" stroke="#B1AED0"/>
</svg>
